<svg width="92" height="93" viewBox="0 0 92 93" fill="none" xmlns="http://www.w3.org/2000/svg">
<rect y="0.226807" width="92" height="92.7731" rx="25" fill="#14C9C9"/>
<path d="M34.648 48.544C32.184 48.544 30.168 47.712 28.6 46.048C27.064 44.352 26.296 42.096 26.296 39.28C26.296 36.464 27.064 34.224 28.6 32.56C30.168 30.864 32.184 30.016 34.648 30.016C37.112 30.016 39.112 30.864 40.648 32.56C42.184 34.224 42.952 36.464 42.952 39.28C42.952 42.096 42.184 44.352 40.648 46.048C39.112 47.712 37.112 48.544 34.648 48.544ZM54.664 30.4H60.376L37.432 64H31.72L54.664 30.4ZM34.648 44.608C35.736 44.608 36.584 44.16 37.192 43.264C37.832 42.368 38.152 41.04 38.152 39.28C38.152 37.52 37.832 36.192 37.192 35.296C36.584 34.4 35.736 33.952 34.648 33.952C33.592 33.952 32.744 34.416 32.104 35.344C31.464 36.24 31.144 37.552 31.144 39.28C31.144 41.008 31.464 42.336 32.104 43.264C32.744 44.16 33.592 44.608 34.648 44.608ZM57.448 64.384C55.848 64.384 54.408 64.016 53.128 63.28C51.88 62.512 50.904 61.424 50.2 60.016C49.496 58.608 49.144 56.976 49.144 55.12C49.144 53.264 49.496 51.632 50.2 50.224C50.904 48.816 51.88 47.744 53.128 47.008C54.408 46.24 55.848 45.856 57.448 45.856C59.912 45.856 61.912 46.704 63.448 48.4C65.016 50.064 65.8 52.304 65.8 55.12C65.8 57.936 65.016 60.192 63.448 61.888C61.912 63.552 59.912 64.384 57.448 64.384ZM57.448 60.448C58.536 60.448 59.384 60 59.992 59.104C60.632 58.176 60.952 56.848 60.952 55.12C60.952 53.392 60.632 52.08 59.992 51.184C59.384 50.256 58.536 49.792 57.448 49.792C56.392 49.792 55.544 50.24 54.904 51.136C54.264 52.032 53.944 53.36 53.944 55.12C53.944 56.88 54.264 58.208 54.904 59.104C55.544 60 56.392 60.448 57.448 60.448Z" fill="black"/>
</svg>
