<svg width="92" height="93" viewBox="0 0 92 93" fill="none" xmlns="http://www.w3.org/2000/svg">
<rect y="0.226807" width="92" height="92.7731" rx="25" fill="#F7B690"/>
<path d="M41.2866 25.9286L41.2871 42.2867C35.8357 42.2875 30.3808 42.2867 24.9281 42.2871C18.6198 42.2871 18.6215 52.0672 24.9281 52.0707C30.3795 52.0681 35.8357 52.0685 41.2858 52.0707C41.288 57.5233 41.288 62.9758 41.2858 68.4284C41.2875 74.7332 51.0668 74.7332 51.0694 68.4284C51.0685 62.9753 51.0681 57.5208 51.069 52.0694L67.4275 52.0703C73.735 52.0694 73.7341 42.2875 67.4275 42.2867C61.9735 42.2867 56.5212 42.2867 51.0668 42.288C51.0672 36.8335 51.0663 31.3804 51.0672 25.9264C51.0681 19.6207 41.2866 19.6202 41.288 25.9308" fill="#EC1C24"/>
</svg>
