<svg width="92" height="93" viewBox="0 0 92 93" fill="none" xmlns="http://www.w3.org/2000/svg">
<rect y="0.226807" width="92" height="92.7731" rx="25" fill="#F2DCFF"/>
<path d="M34.6279 55.26C33.349 55.9892 28.2988 59.9456 28.2988 59.9456C28.2988 59.9456 36.0877 66.7619 36.8796 67.8571C36.8796 67.8571 34.6279 56.9021 34.6279 55.26Z" stroke="black" stroke-linecap="round" stroke-linejoin="round"/>
<path d="M40.7135 41.1404C38.1571 41.1404 34.6279 43.9798 31.4021 47.1852C28.1762 50.3906 20.0212 57.4504 20.0212 60.5537C20.0212 63.6571 36.1489 75.404 41.7475 75.404C47.346 75.404 54.8929 75.9508 59.2752 72.6652C63.6575 69.3796 71.2627 61.7715 71.569 60.4327C71.9736 58.4503 72.0559 56.4155 71.8125 54.4069C71.6212 53.9375 71.304 53.53 70.8959 53.2295C70.4878 52.9289 70.0046 52.7469 69.4996 52.7035C68.3125 52.7035 65.2092 53.981 65.2092 56.1423C65.3279 57.5356 65.5929 58.9125 65.9996 60.2504C63.4089 62.2765 60.7067 64.1558 57.9058 65.8796C57.9058 65.8796 58.0881 54.8327 57.5121 52.0954C56.936 49.3581 51.8829 44.9744 51.8829 44.1227C51.8829 43.271 53.6154 37.6112 53.6154 37.6112C53.6154 37.6112 57.1767 38.4017 57.5719 36.2404C57.9671 34.0792 57.6929 33.9902 57.6929 33.9902C57.9937 33.6903 58.2237 33.327 58.366 32.9269C58.5083 32.5267 58.5593 32.0997 58.5154 31.6773C58.2719 30.3998 57.5412 30.6725 57.5719 29.9419C57.6025 29.2113 58.9398 18.5625 48.9589 18.5625C38.9781 18.5625 38.9183 26.7787 38.9183 28.3304C38.9183 29.8821 43.5121 36.2112 43.0556 38.7371C42.5992 41.2629 42.6604 41.05 42.6604 41.05C42.6604 41.05 41.6512 41.1404 40.7135 41.1404V41.1404Z" stroke="black" stroke-linecap="round" stroke-linejoin="round"/>
<path d="M40.1346 32.0725C39.0088 32.4079 32.6198 41.6887 28.5409 41.6887C26.4591 41.4672 24.5421 40.4544 23.1859 38.8596C26.7763 39.0725 31.3409 32.1046 34.8409 31.5869C36.6197 31.4884 38.4034 31.652 40.1346 32.0725V32.0725Z" stroke="black" stroke-linecap="round" stroke-linejoin="round"/>
</svg>
