<svg width="356" height="1000" viewBox="0 0 356 1000" fill="none" xmlns="http://www.w3.org/2000/svg">
<path d="M139.5 274.5H217.5V340C217.5 346.904 211.904 352.5 205 352.5H152C145.096 352.5 139.5 346.904 139.5 340V274.5Z" fill="#F6B58F" stroke="black"/>
<circle cx="36.5" cy="140.5" r="28" fill="#F6B58F" stroke="black"/>
<circle r="28" transform="matrix(-1 0 0 1 319.5 140.5)" fill="#F6B58F" stroke="black"/>
<circle cx="178" cy="141" r="140.5" fill="#F6B58F" stroke="black"/>
<circle cx="234.5" cy="112.5" r="28" fill="white" stroke="black"/>
<path d="M149.5 112.5C149.5 127.972 137.18 140.5 122 140.5C106.82 140.5 94.5 127.972 94.5 112.5C94.5 97.0276 106.82 84.5 122 84.5C137.18 84.5 149.5 97.0276 149.5 112.5Z" fill="white" stroke="black"/>
<path d="M133 112.5C133 114.929 132.265 117.295 130.899 119.26C129.534 121.224 127.608 122.687 125.399 123.437C123.19 124.188 120.81 124.188 118.601 123.437C116.392 122.687 114.466 121.224 113.101 119.26C111.735 117.295 111 114.929 111 112.5C111 110.071 111.735 107.705 113.101 105.74C114.466 103.776 116.392 102.313 118.601 101.563C120.81 100.812 123.19 100.812 125.399 101.563L123.209 108.61C122.609 110.54 124.052 112.5 126.074 112.5H133Z" fill="black"/>
<path d="M246 112.5C246 114.929 245.231 117.295 243.804 119.26C242.376 121.224 240.363 122.687 238.054 123.437C235.744 124.188 233.256 124.188 230.946 123.437C228.637 122.687 226.624 121.224 225.196 119.26C223.769 117.295 223 114.929 223 112.5C223 110.071 223.769 107.705 225.196 105.74C226.624 103.776 228.637 102.313 230.946 101.563C233.256 100.812 235.744 100.812 238.054 101.563L235.776 108.573C235.146 110.511 236.591 112.5 238.629 112.5H246Z" fill="black"/>
<rect width="56" height="3" rx="1" transform="matrix(1 0 0 -1 94 79)" fill="black"/>
<rect x="150" y="220" width="56" height="3" rx="1" fill="black"/>
<rect x="206" y="76" width="57" height="3" rx="1" fill="black"/>
<path d="M194.488 149.262C194.185 147.696 193.85 146.071 193.522 144.485C192.673 140.379 191.796 136.134 191.796 134.165C191.795 119.527 187.54 113 177.998 113C168.456 113 164.202 119.527 164.202 134.166C164.202 136.137 163.324 140.387 162.473 144.497C162.148 146.079 161.813 147.701 161.511 149.263C155.072 149.77 150 154.826 150 160.97C150 166.682 155.906 171.528 160.143 172.488C160.599 172.592 161.127 172.643 161.761 172.643C162.962 172.643 164.567 172.447 165.824 172.208C169.204 174.949 173.474 176.442 177.998 176.442C182.524 176.442 186.794 174.948 190.172 172.207C191.431 172.446 193.037 172.642 194.239 172.642C194.874 172.642 195.403 172.591 195.857 172.487C200.093 171.529 206 166.684 206 160.97C206 154.826 200.925 149.768 194.488 149.262ZM195.274 170.115C194.933 170.18 194.586 170.21 194.239 170.202C192.827 170.202 190.862 169.885 189.919 169.653C190.883 169.169 192.09 168.668 193.385 168.409C200.248 167.028 197.268 163.995 192.678 165.377C189.073 166.461 187.923 170.588 187.856 170.836C185.031 172.891 181.564 174.005 177.998 174.002C174.434 174.005 170.969 172.893 168.145 170.84C168.09 170.636 166.947 166.468 163.321 165.377C158.732 163.995 155.752 167.029 162.615 168.409C163.908 168.668 165.114 169.17 166.08 169.653C165.139 169.884 163.171 170.202 161.761 170.202C161.358 170.202 160.998 170.176 160.727 170.115C157.67 169.422 152.545 165.525 152.545 160.971C152.545 155.831 157.036 151.662 162.575 151.662C162.936 151.662 163.292 151.681 163.642 151.715C164.735 145.509 166.745 137.528 166.745 134.166C166.745 118.389 171.782 115.44 177.997 115.44C184.217 115.44 189.249 118.389 189.249 134.166C189.249 137.527 191.261 145.509 192.354 151.717C192.704 151.681 193.062 151.662 193.422 151.662C198.962 151.662 203.453 155.83 203.453 160.971C203.455 165.525 198.33 169.422 195.274 170.115Z" fill="black"/>
<mask id="path-13-inside-1_130_22" fill="white">
<path fill-rule="evenodd" clip-rule="evenodd" d="M95.8223 101.387H147.568C146.17 98.1835 144.176 95.237 141.656 92.7176C136.362 87.4235 129.182 84.4493 121.695 84.4493C114.208 84.4493 107.028 87.4235 101.734 92.7176C99.2144 95.237 97.2204 98.1835 95.8223 101.387Z"/>
</mask>
<path fill-rule="evenodd" clip-rule="evenodd" d="M95.8223 101.387H147.568C146.17 98.1835 144.176 95.237 141.656 92.7176C136.362 87.4235 129.182 84.4493 121.695 84.4493C114.208 84.4493 107.028 87.4235 101.734 92.7176C99.2144 95.237 97.2204 98.1835 95.8223 101.387Z" fill="#F6B58F"/>
<path d="M95.8223 101.387L94.9057 100.987L94.2948 102.387H95.8223V101.387ZM147.568 101.387V102.387H149.095L148.484 100.987L147.568 101.387ZM141.656 92.7176L140.949 93.4247L141.656 92.7176ZM121.695 84.4493V83.4493V84.4493ZM101.734 92.7176L101.027 92.0105L101.734 92.7176ZM95.8223 102.387H147.568V100.387H95.8223V102.387ZM148.484 100.987C147.037 97.6701 144.972 94.6191 142.363 92.0105L140.949 93.4247C143.379 95.8548 145.303 98.697 146.651 101.787L148.484 100.987ZM142.363 92.0105C136.882 86.5289 129.447 83.4493 121.695 83.4493V85.4493C128.917 85.4493 135.843 88.3182 140.949 93.4247L142.363 92.0105ZM121.695 83.4493C113.943 83.4493 106.508 86.5289 101.027 92.0105L102.441 93.4247C107.547 88.3182 114.473 85.4493 121.695 85.4493V83.4493ZM101.027 92.0105C98.418 94.6191 96.3534 97.6701 94.9057 100.987L96.7388 101.787C98.0874 98.697 100.011 95.8548 102.441 93.4247L101.027 92.0105Z" fill="black" mask="url(#path-13-inside-1_130_22)"/>
<mask id="path-15-inside-2_130_22" fill="white">
<path fill-rule="evenodd" clip-rule="evenodd" d="M208.74 101.387H260.486C259.088 98.1835 257.094 95.237 254.574 92.7176C249.28 87.4235 242.1 84.4493 234.613 84.4493C227.126 84.4493 219.946 87.4235 214.652 92.7176C212.132 95.237 210.138 98.1835 208.74 101.387Z"/>
</mask>
<path fill-rule="evenodd" clip-rule="evenodd" d="M208.74 101.387H260.486C259.088 98.1835 257.094 95.237 254.574 92.7176C249.28 87.4235 242.1 84.4493 234.613 84.4493C227.126 84.4493 219.946 87.4235 214.652 92.7176C212.132 95.237 210.138 98.1835 208.74 101.387Z" fill="#F6B58F"/>
<path d="M208.74 101.387L207.824 100.987L207.213 102.387H208.74V101.387ZM260.486 101.387V102.387H262.013L261.402 100.987L260.486 101.387ZM254.574 92.7176L253.867 93.4247L254.574 92.7176ZM214.652 92.7176L213.945 92.0105L214.652 92.7176ZM208.74 102.387H260.486V100.387H208.74V102.387ZM261.402 100.987C259.955 97.6701 257.89 94.6191 255.281 92.0105L253.867 93.4247C256.297 95.8548 258.221 98.697 259.569 101.787L261.402 100.987ZM255.281 92.0105C249.8 86.5289 242.365 83.4493 234.613 83.4493L234.613 85.4493C241.835 85.4493 248.761 88.3182 253.867 93.4247L255.281 92.0105ZM234.613 83.4493C226.861 83.4493 219.426 86.5289 213.945 92.0105L215.359 93.4247C220.465 88.3182 227.391 85.4493 234.613 85.4493L234.613 83.4493ZM213.945 92.0105C211.336 94.6191 209.271 97.6701 207.824 100.987L209.657 101.787C211.005 98.697 212.929 95.8548 215.359 93.4247L213.945 92.0105Z" fill="black" mask="url(#path-15-inside-2_130_22)"/>
<path d="M20 129C24.078 130.379 27.629 133.057 30.1439 136.649C32.6589 140.242 34.0087 144.566 34 149" stroke="#F7A26D"/>
<path d="M336 129C331.922 130.379 328.371 133.057 325.856 136.649C323.341 140.242 321.991 144.566 322 149" stroke="#F7A26D"/>
<path d="M19.4238 155.196C19.6179 151.864 20.8732 148.671 23.0097 146.076C25.1463 143.481 28.0544 141.616 31.3173 140.749" stroke="#F7A26D"/>
<path d="M336.885 155.196C336.691 151.864 335.435 148.671 333.299 146.076C331.162 143.481 328.254 141.616 324.991 140.749" stroke="#F7A26D"/>
<ellipse cx="38.5" cy="625" rx="38.5" ry="38" fill="#F6B58F"/>
<circle cx="318" cy="625" r="38" fill="#F6B58F"/>
<mask id="path-23-inside-3_130_22" fill="white">
<path fill-rule="evenodd" clip-rule="evenodd" d="M107.581 615.164H248.728V668.802L248.768 668.8L266.771 996.116L196.158 1000L178.718 682.915H177.71L166.266 996.084L95.5938 993.501L107.565 665.909L107.581 665.91V615.164Z"/>
</mask>
<path fill-rule="evenodd" clip-rule="evenodd" d="M107.581 615.164H248.728V668.802L248.768 668.8L266.771 996.116L196.158 1000L178.718 682.915H177.71L166.266 996.084L95.5938 993.501L107.565 665.909L107.581 665.91V615.164Z" fill="white"/>
<path d="M248.728 615.164H249.728V614.164H248.728V615.164ZM107.581 615.164V614.164H106.581V615.164H107.581ZM248.728 668.802H247.728V669.859L248.783 669.801L248.728 668.802ZM248.768 668.8L249.766 668.745L249.711 667.746L248.713 667.801L248.768 668.8ZM266.771 996.116L266.826 997.115L267.824 997.06L267.769 996.061L266.771 996.116ZM196.158 1000L195.16 1000.05L195.214 1001.05L196.213 1001L196.158 1000ZM178.718 682.915L179.716 682.86L179.664 681.915H178.718V682.915ZM177.71 682.915V681.915H176.746L176.71 682.878L177.71 682.915ZM166.266 996.084L166.229 997.083L167.229 997.12L167.265 996.12L166.266 996.084ZM95.5938 993.501L94.5944 993.465L94.5579 994.464L95.5572 994.501L95.5938 993.501ZM107.565 665.909L107.601 664.91L106.602 664.873L106.565 665.872L107.565 665.909ZM107.581 665.91L107.544 666.909L108.581 666.947V665.91H107.581ZM248.728 614.164H107.581V616.164H248.728V614.164ZM249.728 668.802V615.164H247.728V668.802H249.728ZM248.783 669.801L248.822 669.798L248.713 667.801L248.673 667.804L248.783 669.801ZM247.769 668.855L265.772 996.171L267.769 996.061L249.766 668.745L247.769 668.855ZM266.716 995.118L196.103 999.001L196.213 1001L266.826 997.115L266.716 995.118ZM197.157 999.945L179.716 682.86L177.719 682.97L195.16 1000.05L197.157 999.945ZM177.71 683.915H178.718V681.915H177.71V683.915ZM167.265 996.12L178.709 682.951L176.71 682.878L165.267 996.047L167.265 996.12ZM95.5572 994.501L166.229 997.083L166.303 995.084L95.6303 992.502L95.5572 994.501ZM106.565 665.872L94.5944 993.465L96.5931 993.538L108.564 665.946L106.565 665.872ZM107.617 664.91L107.601 664.91L107.528 666.908L107.544 666.909L107.617 664.91ZM106.581 615.164V665.91H108.581V615.164H106.581Z" fill="black" mask="url(#path-23-inside-3_130_22)"/>
<mask id="path-25-inside-4_130_22" fill="white">
<path fill-rule="evenodd" clip-rule="evenodd" d="M138.633 284.879L164.039 299.17V313.108H192.269V299.17L217.675 284.879V313.108H217.676L262.843 341.338L284.541 341.338C292.825 341.338 299.541 348.053 299.541 356.338V380.605L343.094 604.677L280.671 615.294L262.843 523.574V615.164H93.466V527.617L76.4239 615.294L14 604.677L56.7675 384.649V356.338C56.7675 348.053 63.4832 341.338 71.7675 341.338L93.466 341.338L138.633 313.109V284.879Z"/>
</mask>
<path fill-rule="evenodd" clip-rule="evenodd" d="M138.633 284.879L164.039 299.17V313.108H192.269V299.17L217.675 284.879V313.108H217.676L262.843 341.338L284.541 341.338C292.825 341.338 299.541 348.053 299.541 356.338V380.605L343.094 604.677L280.671 615.294L262.843 523.574V615.164H93.466V527.617L76.4239 615.294L14 604.677L56.7675 384.649V356.338C56.7675 348.053 63.4832 341.338 71.7675 341.338L93.466 341.338L138.633 313.109V284.879Z" fill="white"/>
<path d="M164.039 299.17H165.039V298.585L164.529 298.298L164.039 299.17ZM138.633 284.879L139.123 284.007L137.633 283.169V284.879H138.633ZM164.039 313.108H163.039V314.108H164.039V313.108ZM192.269 313.108V314.108H193.269V313.108H192.269ZM192.269 299.17L191.778 298.298L191.269 298.585V299.17H192.269ZM217.675 284.879H218.675V283.169L217.185 284.007L217.675 284.879ZM217.675 313.108H216.675V314.108H217.675V313.108ZM217.676 313.108L218.206 312.26L217.963 312.108H217.676V313.108ZM262.843 341.338L262.313 342.186L262.556 342.338L262.843 342.338L262.843 341.338ZM284.541 341.338L284.541 342.338H284.541V341.338ZM299.541 380.605H298.541V380.701L298.559 380.796L299.541 380.605ZM343.094 604.677L343.262 605.663L344.271 605.491L344.076 604.486L343.094 604.677ZM280.671 615.294L279.689 615.485L279.875 616.444L280.838 616.28L280.671 615.294ZM262.843 523.574L263.825 523.383L261.843 523.574H262.843ZM262.843 615.164V616.164H263.843V615.164H262.843ZM93.466 615.164H92.466V616.164H93.466V615.164ZM93.466 527.617H94.466L92.4843 527.426L93.466 527.617ZM76.4239 615.294L76.2562 616.28L77.2191 616.444L77.4055 615.485L76.4239 615.294ZM14 604.677L13.0184 604.486L12.823 605.491L13.8323 605.663L14 604.677ZM56.7675 384.649L57.7491 384.84L57.7675 384.745V384.649H56.7675ZM71.7675 341.338L71.7675 342.338L71.7675 342.338L71.7675 341.338ZM93.466 341.338L93.466 342.338L93.7528 342.338L93.996 342.186L93.466 341.338ZM138.633 313.109L139.163 313.957L139.633 313.663V313.109H138.633ZM164.529 298.298L139.123 284.007L138.142 285.75L163.549 300.041L164.529 298.298ZM165.039 313.108V299.17H163.039V313.108H165.039ZM192.269 312.108H164.039V314.108H192.269V312.108ZM191.269 299.17V313.108H193.269V299.17H191.269ZM217.185 284.007L191.778 298.298L192.759 300.041L218.165 285.75L217.185 284.007ZM218.675 313.108V284.879H216.675V313.108H218.675ZM217.676 312.108H217.675V314.108H217.676V312.108ZM263.373 340.49L218.206 312.26L217.146 313.956L262.313 342.186L263.373 340.49ZM284.541 340.338L262.843 340.338L262.843 342.338L284.541 342.338L284.541 340.338ZM300.541 356.338C300.541 347.501 293.377 340.338 284.541 340.338V342.338C292.273 342.338 298.541 348.606 298.541 356.338H300.541ZM300.541 380.605V356.338H298.541V380.605H300.541ZM344.076 604.486L300.523 380.414L298.559 380.796L342.113 604.868L344.076 604.486ZM280.838 616.28L343.262 605.663L342.927 603.691L280.503 614.308L280.838 616.28ZM261.861 523.765L279.689 615.485L281.652 615.103L263.825 523.383L261.861 523.765ZM263.843 615.164V523.574H261.843V615.164H263.843ZM93.466 616.164H262.843V614.164H93.466V616.164ZM92.466 527.617V615.164H94.466V527.617H92.466ZM77.4055 615.485L94.4476 527.808L92.4843 527.426L75.4422 615.103L77.4055 615.485ZM13.8323 605.663L76.2562 616.28L76.5915 614.308L14.1677 603.691L13.8323 605.663ZM55.7859 384.458L13.0184 604.486L14.9816 604.868L57.7491 384.84L55.7859 384.458ZM55.7675 356.338V384.649H57.7675V356.338H55.7675ZM71.7675 340.338C62.9309 340.338 55.7675 347.501 55.7675 356.338H57.7675C57.7675 348.606 64.0355 342.338 71.7675 342.338V340.338ZM93.466 340.338L71.7675 340.338L71.7675 342.338L93.466 342.338L93.466 340.338ZM138.103 312.261L92.936 340.49L93.996 342.186L139.163 313.957L138.103 312.261ZM137.633 284.879V313.109H139.633V284.879H137.633Z" fill="black" mask="url(#path-25-inside-4_130_22)"/>
</svg>
