<svg width="170" height="89" viewBox="0 0 170 89" fill="none" xmlns="http://www.w3.org/2000/svg">
<path d="M0 6.08398C0 2.72389 2.70214 0 6.0354 0H57.7674C61.1006 0 63.8028 2.72389 63.8028 6.08398V82.916C63.8028 86.2761 61.1006 89 57.7674 89H6.0354C2.70214 89 0 86.2761 0 82.916V6.08398Z" fill="black"/>
<path d="M56.5603 16.166C56.5603 20.9661 52.7001 24.8574 47.9383 24.8574C43.1765 24.8574 39.3163 20.9661 39.3163 16.166C39.3163 11.3659 43.1765 7.47461 47.9383 7.47461C52.7001 7.47461 56.5603 11.3659 56.5603 16.166Z" fill="#F7B690"/>
<path d="M0 6.08398C0 2.72389 2.70214 0 6.0354 0H31.9014L63.8028 32.1582V82.916C63.8028 86.2761 61.1006 89 57.7674 89H6.0354C2.70214 89 0 86.2761 0 82.916V6.08398Z" fill="white"/>
<path d="M31.9014 0L63.8028 32.1582H37.9368C34.6035 32.1582 31.9014 29.4343 31.9014 26.0742V0Z" fill="#DDE0E0"/>
<path d="M5.51808 66.75H58.2847V72.3125H5.51808V66.75Z" fill="black"/>
<path d="M5.51808 77.875H58.2847V83.4375H5.51808V77.875Z" fill="black"/>
<path d="M5.51808 55.625H58.2847V61.1875H5.51808V55.625Z" fill="black"/>
<path d="M5.51808 44.5H58.2847V50.0625H5.51808V44.5Z" fill="black"/>
<path d="M15.3471 33.375H48.4556V38.9375H15.3471V33.375Z" fill="black"/>
<path d="M5.51808 5.5625H26.9006V11.125H5.51808V5.5625Z" fill="black"/>
<path d="M70.7644 38.7289H74.6712V47.3563H79.9023V50.4102H70.7644V38.7289Z" fill="white"/>
<path d="M82.0575 38.7289H85.9643V50.4102H82.0575V38.7289Z" fill="white"/>
<path d="M92.8278 41.6993V43.7018H97.6617V46.6722H92.8278V50.4102H88.921V38.7289H98.3404V41.6993H92.8278Z" fill="white"/>
<path d="M110.285 47.4398V50.4102H100.651V38.7289H110.07V41.6993H104.491V43.0677H109.391V45.9045H104.491V47.4398H110.285Z" fill="white"/>
<path d="M117.186 50.6772C116.226 50.6772 115.288 50.5715 114.372 50.3601C113.467 50.1376 112.722 49.8428 112.137 49.4757L113.395 46.6054C113.947 46.928 114.565 47.1895 115.249 47.3897C115.933 47.5788 116.59 47.6734 117.219 47.6734C117.76 47.6734 118.146 47.6233 118.378 47.5232C118.609 47.412 118.725 47.2507 118.725 47.0393C118.725 46.7945 118.571 46.611 118.262 46.4886C117.964 46.3662 117.467 46.2327 116.772 46.0881C115.878 45.899 115.133 45.6987 114.537 45.4873C113.941 45.2648 113.422 44.9088 112.981 44.4193C112.54 43.9187 112.319 43.2457 112.319 42.4002C112.319 41.6659 112.523 40.9984 112.931 40.3977C113.34 39.7969 113.947 39.3241 114.752 38.9792C115.569 38.6343 116.557 38.4619 117.716 38.4619C118.51 38.4619 119.288 38.5509 120.05 38.7289C120.822 38.8958 121.501 39.1461 122.086 39.4798L120.911 42.3334C119.774 41.7549 118.698 41.4657 117.682 41.4657C116.678 41.4657 116.176 41.7104 116.176 42.1999C116.176 42.4335 116.325 42.6115 116.623 42.7339C116.921 42.8452 117.412 42.9675 118.096 43.101C118.979 43.2679 119.724 43.4626 120.331 43.6851C120.938 43.8965 121.462 44.2469 121.904 44.7364C122.356 45.2259 122.582 45.8934 122.582 46.7389C122.582 47.4732 122.378 48.1407 121.97 48.7414C121.562 49.331 120.949 49.8038 120.132 50.1598C119.327 50.5047 118.345 50.6772 117.186 50.6772Z" fill="white"/>
<path d="M127.176 41.7827H123.782V38.7289H134.476V41.7827H131.082V50.4102H127.176V41.7827Z" fill="white"/>
<path d="M143.13 46.1715V50.4102H139.223V46.1215L134.853 38.7289H138.975L141.342 42.7673L143.726 38.7289H147.5L143.13 46.1715Z" fill="white"/>
<path d="M149.072 38.7289H152.979V47.3563H158.21V50.4102H149.072V38.7289Z" fill="white"/>
<path d="M170 47.4398V50.4102H160.365V38.7289H169.785V41.6993H164.206V43.0677H169.106V45.9045H164.206V47.4398H170Z" fill="white"/>
</svg>
