<svg width="175" height="52" viewBox="0 0 175 52" fill="none" xmlns="http://www.w3.org/2000/svg">
<path d="M65.171 18.4H69.419V27.706H75.107V31H65.171V18.4ZM77.4504 18.4H81.6984V31H77.4504V18.4ZM89.1614 21.604V23.764H94.4174V26.968H89.1614V31H84.9134V18.4H95.1554V21.604H89.1614ZM108.143 27.796V31H97.6673V18.4H107.909V21.604H101.843V23.08H107.171V26.14H101.843V27.796H108.143ZM115.647 31.288C114.603 31.288 113.583 31.174 112.587 30.946C111.603 30.706 110.793 30.388 110.157 29.992L111.525 26.896C112.125 27.244 112.797 27.526 113.541 27.742C114.285 27.946 114.999 28.048 115.683 28.048C116.271 28.048 116.691 27.994 116.943 27.886C117.195 27.766 117.321 27.592 117.321 27.364C117.321 27.1 117.153 26.902 116.817 26.77C116.493 26.638 115.953 26.494 115.197 26.338C114.225 26.134 113.415 25.918 112.767 25.69C112.119 25.45 111.555 25.066 111.075 24.538C110.595 23.998 110.355 23.272 110.355 22.36C110.355 21.568 110.577 20.848 111.021 20.2C111.465 19.552 112.125 19.042 113.001 18.67C113.889 18.298 114.963 18.112 116.223 18.112C117.087 18.112 117.933 18.208 118.761 18.4C119.601 18.58 120.339 18.85 120.975 19.21L119.697 22.288C118.461 21.664 117.291 21.352 116.187 21.352C115.095 21.352 114.549 21.616 114.549 22.144C114.549 22.396 114.711 22.588 115.035 22.72C115.359 22.84 115.893 22.972 116.637 23.116C117.597 23.296 118.407 23.506 119.067 23.746C119.727 23.974 120.297 24.352 120.777 24.88C121.269 25.408 121.515 26.128 121.515 27.04C121.515 27.832 121.293 28.552 120.849 29.2C120.405 29.836 119.739 30.346 118.851 30.73C117.975 31.102 116.907 31.288 115.647 31.288ZM126.509 21.694H122.819V18.4H134.447V21.694H130.757V31H126.509V21.694ZM143.857 26.428V31H139.609V26.374L134.857 18.4H139.339L141.913 22.756L144.505 18.4H148.609L143.857 26.428ZM150.318 18.4H154.566V27.706H160.254V31H150.318V18.4ZM173.073 27.796V31H162.597V18.4H172.839V21.604H166.773V23.08H172.101V26.14H166.773V27.796H173.073Z" fill="black"/>
<rect x="1.14502" width="50" height="50" rx="25" fill="white"/>
<path d="M21.3638 6.34218L21.3642 21.3643C16.3581 21.3651 11.3487 21.3643 6.34129 21.3647C0.548156 21.3647 0.549772 30.3461 6.34129 30.3493C11.3475 30.3469 16.3581 30.3473 21.363 30.3493C21.3651 35.3566 21.3651 40.3638 21.363 45.3711C21.3646 51.161 30.3452 51.161 30.3476 45.3711C30.3468 40.3633 30.3464 35.3543 30.3472 30.3481L45.3698 30.3489C51.1621 30.3481 51.1613 21.3651 45.3698 21.3643C40.3612 21.3643 35.3542 21.3643 30.3452 21.3655C30.3456 16.3565 30.3448 11.3488 30.3456 6.34016C30.3464 0.549454 21.3638 0.549051 21.3651 6.3442" fill="#EC1C24"/>
</svg>
